<svg version="1.1" id="Layer_1" xmlns="http://www.w3.org/2000/svg" xmlns:xlink="http://www.w3.org/1999/xlink" x="0px" y="0px" width="100%" viewBox="0 0 1080 1080" xml:space="preserve">
  <circle fill="#38B5FE" cx="540" cy="540" r="540" />
  
  <circle fill="#000101" cx="540" cy="540" r="500" />
  
  <path fill="#FFFFFF" d="M742.999512,194.979721 C784.382568,211.902725 816.342957,239.088562 837.732910,278.125031 C851.526733,303.298676 858.581238,330.554108 860.909363,359.023712 C861.831482,370.299042 862.068054,381.656281 862.075806,392.976562 C862.155762,509.804321 862.124817,626.632202 862.124878,743.460022 C862.124878,745.452576 862.124939,747.445129 862.124939,749.802368 C822.294373,749.802368 782.586792,749.802368 742.366455,749.802368 C742.366455,747.818542 742.366394,745.861023 742.366394,743.903503 C742.366577,631.742126 742.370178,519.580750 742.364136,407.419403 C742.362915,384.877197 740.842896,362.555939 734.028381,340.826538 C723.604248,307.587128 701.268433,287.674316 667.340576,280.721313 C640.217590,275.162872 613.067932,275.032013 586.163086,282.065216 C551.201965,291.204376 531.628784,315.040466 522.998840,349.112427 C518.178711,368.142975 516.881348,387.522888 516.886658,407.065948 C516.916809,519.393982 516.901550,631.721985 516.901672,744.050049 C516.901672,745.861267 516.901611,747.672485 516.901611,749.824463 C476.941010,749.824463 437.229370,749.824463 397.028931,749.824463 C397.028931,748.393188 397.028900,746.942932 397.028931,745.492737 C397.029327,625.331726 397.013824,505.170746 397.040466,385.009735 C397.047791,352.018951 402.414795,320.105835 416.529724,289.992432 C433.554749,253.670410 459.861694,226.098160 494.990082,206.902893 C529.327209,188.139969 566.381714,179.317413 605.199158,176.817368 C639.969604,174.577942 674.494263,175.975632 708.464478,184.098114 C720.049500,186.868149 731.252258,191.237076 742.999512,194.979721 z"/>
  <path fill="#FFFFFF" d="M219.826126,510.999939 C219.826126,451.213074 219.826126,391.926208 219.826126,332.402588 C259.700348,332.402588 299.128876,332.402588 339.359894,332.402588 C339.359894,334.316925 339.359894,336.222198 339.359894,338.127472 C339.359772,450.453308 339.326080,562.779114 339.390533,675.104980 C339.402100,695.285095 340.515869,715.393921 345.893860,735.006653 C351.568756,755.702209 360.914490,774.066345 379.027588,786.828674 C391.090973,795.328369 404.613861,800.281372 419.043152,802.534546 C449.003235,807.212708 478.761658,807.447388 507.562683,796.139465 C531.589844,786.705811 546.616028,768.768066 555.088501,744.813721 C563.036438,722.342590 564.839417,698.990723 564.855774,675.441284 C564.933716,563.115479 564.890686,450.789612 564.890686,338.463776 C564.890686,336.509888 564.890686,334.556000 564.890686,332.433502 C604.933472,332.433502 644.505981,332.433502 684.492554,332.433502 C684.492554,334.507935 684.492554,336.315491 684.492554,338.123047 C684.492493,456.615143 684.478821,575.107239 684.502014,693.599365 C684.507629,722.421570 681.296692,750.688049 671.021423,777.879822 C652.735413,826.270691 619.725464,860.705139 572.791321,882.046692 C541.184387,896.418823 507.855499,903.261169 473.330627,905.309753 C437.011322,907.464844 401.066956,905.498962 365.817505,896.044678 C320.310211,883.839111 282.314209,860.211304 254.788651,821.265015 C237.577362,796.912598 227.269440,769.636230 223.255188,740.268066 C220.985321,723.661621 220.079956,706.762207 219.973434,689.985779 C219.595718,630.492554 219.826126,570.995544 219.826126,510.999939 z"/>
</svg>
